# Blender 4.2.3 LTS
# www.blender.org
mtllib 302.mtl
o Cube
v -1.000000 -1.000000 0.100000
v -1.000000 1.000000 0.100000
v -1.000000 -1.000000 -0.100000
v -1.000000 1.000000 -0.100000
v 1.000000 -1.000000 0.100000
v 1.000000 1.000000 0.100000
v 1.000000 -1.000000 -0.100000
v 1.000000 1.000000 -0.100000
vn -1.0000 -0.0000 -0.0000
vn -0.0000 -0.0000 -1.0000
vn 1.0000 -0.0000 -0.0000
vn -0.0000 -0.0000 1.0000
vn -0.0000 -1.0000 -0.0000
vn -0.0000 1.0000 -0.0000
vt -0.000538 -0.005345
vt 1.000537 -0.005345
vt 1.000537 0.995730
vt -0.000538 0.995730
vt -0.000538 -0.005345
vt 1.000537 -0.005345
vt 1.000537 0.995730
vt -0.000538 0.995730
vt -0.000538 -0.005345
vt 1.000537 -0.005345
vt 1.000537 0.995730
vt -0.000538 0.995730
vt -0.000538 -0.005345
vt -0.000538 0.995730
vt -0.000537 -0.005345
vt 1.000537 -0.005345
vt 1.000537 0.995730
vt -0.000537 0.995730
s 0
usemtl Material.001
f 1/1/1 2/2/1 4/3/1 3/4/1
f 3/5/2 4/6/2 8/7/2 7/8/2
f 7/5/3 8/6/3 6/7/3 5/8/3
f 5/9/4 6/10/4 2/11/4 1/12/4
f 3/13/5 7/6/5 5/7/5 1/14/5
f 8/15/6 4/16/6 2/17/6 6/18/6
